<svg width="38" height="46" viewBox="0 0 38 46" fill="none" xmlns="http://www.w3.org/2000/svg">
<path d="M2.6322 16.4867C3.10616 13.4889 4.57164 10.4707 7.32525 7.71707C13.5594 1.48293 23.7451 1.48293 29.9792 7.71707C31.9856 9.72339 33.3435 12.1368 34.0588 14.6956C34.0384 14.6171 34.0151 14.5386 33.9919 14.46H37.1409C36.3413 11.1947 34.6694 8.1067 32.128 5.56536C24.7076 -1.85512 12.594 -1.85512 5.17354 5.56536C2.6322 8.1067 0.963173 11.1976 0.160645 14.46H3.10325C2.89389 15.1346 2.73688 15.8121 2.6322 16.4867Z" fill="white"/>
<path d="M34.0035 23.5844C33.2737 26.0734 31.9332 28.4171 29.9793 30.371C19.5231 40.8272 5.23753 32.7612 2.82122 21.8747H2.81541C2.94916 22.4708 3.1149 23.0581 3.31553 23.6368H0.163574C0.966103 26.8963 2.63513 29.9843 5.17356 32.5228L18.6508 46L32.1281 32.5228C34.6665 29.9843 36.3355 26.8963 37.138 23.6368H33.989L34.0035 23.5844Z" fill="white"/>
<path d="M31.6539 19.0484C31.6539 16.0593 30.642 13.3086 28.9439 11.1162V11.1453C26.5712 8.06017 22.8435 6.06839 18.6506 6.06839C11.9977 6.06839 6.51671 11.0726 5.7607 17.519V17.7225C5.71709 18.1587 5.69092 18.6006 5.69092 19.0455C5.69092 19.4933 5.71709 19.9353 5.7607 20.3685V20.5721C6.51671 27.0214 12.0007 32.0226 18.6506 32.0226C22.8435 32.0226 26.5712 30.0308 28.9439 26.9458V26.9748C30.642 24.7853 31.6539 22.0375 31.6539 19.0484ZM17.1211 28.8532C12.8672 28.1961 9.50293 24.8319 8.84579 20.5779H10.9335C14.3559 20.5895 17.124 23.3664 17.124 26.7917V28.8532H17.1211ZM18.6506 20.6535C17.7637 20.6535 17.0455 19.9353 17.0455 19.0484C17.0455 18.1616 17.7637 17.4434 18.6506 17.4434C19.5374 17.4434 20.2556 18.1616 20.2556 19.0484C20.2556 19.9353 19.5374 20.6535 18.6506 20.6535ZM20.18 28.8532V26.7887C20.18 23.3635 22.9482 20.5866 26.3706 20.575H28.4583C27.7983 24.8319 24.4369 28.1961 20.18 28.8532ZM22.4481 17.519C21.8433 16.0157 20.369 14.9544 18.6506 14.9544C16.9321 14.9544 15.4579 16.0157 14.8531 17.519H8.84579C9.58144 12.7648 13.6929 9.12439 18.6506 9.12439C23.6111 9.12439 27.7197 12.7648 28.4554 17.519H22.4481Z" fill="white"/>
</svg>
